<?xml version="1.0"?>
<svg xmlns="http://www.w3.org/2000/svg" viewBox="0 0 16 16">
    <path d="M 6.2910156 2 C 5.7850156 2 5.3295625 2.3143125 5.1015625 2.8203125 L 5.0214844 3 L 2.5 3 C 1.673 3 1 3.673 1 4.5 L 1 11.5 C 1 12.327 1.673 13 2.5 13 L 9.8789062 13 L 10.214844 12.664062 C 10.138844 12.451063 10.086828 12.228 10.048828 12 L 2.5 12 C 2.225 12 2 11.776 2 11.5 L 2 4.5 C 2 4.224 2.225 4 2.5 4 L 5.6679688 4 L 6.0136719 3.2304688 C 6.0756719 3.0904687 6.1860156 3 6.2910156 3 L 9.7089844 3 C 9.8139844 3 9.9233281 3.0905156 9.9863281 3.2285156 L 10.332031 4 L 13.5 4 C 13.775 4 14 4.224 14 4.5 L 14 8.0507812 C 14.354 8.1017813 14.689 8.2025625 15 8.3515625 L 15 4.5 C 15 3.673 14.327 3 13.5 3 L 10.980469 3 L 10.898438 2.8183594 C 10.670438 2.3133594 10.213984 2 9.7089844 2 L 6.2910156 2 z M 3 5 L 3 6 L 4 6 L 4 5 L 3 5 z M 8 5 C 6.3490681 5 5 6.3490681 5 8 C 5 9.6509319 6.3490681 11 8 11 C 9.6509319 11 11 9.6509319 11 8 C 11 6.3490681 9.6509319 5 8 5 z M 8 6 C 9.1104918 6 10 6.8895082 10 8 C 10 9.1104918 9.1104918 10 8 10 C 6.8895082 10 6 9.1104918 6 8 C 6 6.8895082 6.8895082 6 8 6 z M 13.5 9 C 12.12521 9 11 10.12521 11 11.5 C 11 12.007772 11.155094 12.479439 11.417969 12.875 L 9.0214844 15.271484 L 9.7285156 15.978516 L 12.125 13.582031 C 12.520561 13.844906 12.992228 14 13.5 14 C 14.87479 14 16 12.87479 16 11.5 C 16 10.12521 14.87479 9 13.5 9 z M 13.5 10 C 14.334349 10 15 10.665651 15 11.5 C 15 12.334349 14.334349 13 13.5 13 C 12.665651 13 12 12.334349 12 11.5 C 12 10.665651 12.665651 10 13.5 10 z"/>
</svg>
